<svg xmlns="http://www.w3.org/2000/svg" viewBox="0 0 400 348" width="400" height="348" role="img" aria-label="Cyberpunk penguin unit 04 hologram card with rotating radar sweep">

  <defs>
    <linearGradient id="nSky" x1="0" y1="0" x2="0" y2="1">
      <stop offset="0" stop-color="#0B0F1A"/><stop offset="0.62" stop-color="#0C1322"/><stop offset="1" stop-color="#0D1424"/>
    </linearGradient>
    <linearGradient id="nCard" x1="0" y1="0" x2="0" y2="1">
      <stop offset="0" stop-color="#101526"/><stop offset="1" stop-color="#0B0F1A"/>
    </linearGradient>
    <linearGradient id="nBody" x1="0" y1="0" x2="0" y2="1">
      <stop offset="0" stop-color="#1A2033"/><stop offset="1" stop-color="#0A0E1A"/>
    </linearGradient>
    <linearGradient id="nWing" x1="0" y1="0" x2="0" y2="1">
      <stop offset="0" stop-color="#1E2438"/><stop offset="1" stop-color="#0D1119"/>
    </linearGradient>
    <linearGradient id="nSun" x1="0" y1="0" x2="0" y2="1">
      <stop offset="0" stop-color="#F6C177"/><stop offset="0.25" stop-color="#FFB25E"/><stop offset="0.5" stop-color="#FF7A59"/><stop offset="0.75" stop-color="#FF4D6D"/><stop offset="1" stop-color="#FF2A6D"/>
    </linearGradient>
    <linearGradient id="nFloor" x1="0" y1="0" x2="0" y2="1">
      <stop offset="0" stop-color="#0D1424" stop-opacity="0"/><stop offset="1" stop-color="#05070F" stop-opacity="0.85"/>
    </linearGradient>
    <linearGradient id="nFadeWhite" x1="0" y1="0" x2="0" y2="1">
      <stop offset="0" stop-color="#FFFFFF" stop-opacity="0.9"/><stop offset="1" stop-color="#FFFFFF" stop-opacity="0"/>
    </linearGradient>
    <radialGradient id="nShadow" cx="0.5" cy="0.5" r="0.5">
      <stop offset="0" stop-color="#FF2A6D" stop-opacity="0.34"/><stop offset="0.55" stop-color="#FF2A6D" stop-opacity="0.12"/><stop offset="1" stop-color="#FF2A6D" stop-opacity="0"/>
    </radialGradient>
    <radialGradient id="nScreen" cx="0.5" cy="0.35" r="0.75">
      <stop offset="0" stop-color="#05D9E8" stop-opacity="0.16"/><stop offset="1" stop-color="#05D9E8" stop-opacity="0"/>
    </radialGradient>
    <linearGradient id="sweepG" x1="0" y1="0" x2="1" y2="0">
      <stop offset="0" stop-color="#05D9E8" stop-opacity="0.02"/><stop offset="0.75" stop-color="#05D9E8" stop-opacity="0.16"/><stop offset="1" stop-color="#05D9E8" stop-opacity="0.22"/>
    </linearGradient>
    <pattern id="nDots" width="22" height="22" patternUnits="userSpaceOnUse">
      <circle cx="11" cy="11" r="0.9" fill="#05D9E8" opacity="0.14"/>
    </pattern>
    <radialGradient id="nVig" cx="0.45" cy="0.42" r="0.78">
      <stop offset="0" stop-color="#000000" stop-opacity="0"/><stop offset="0.7" stop-color="#000000" stop-opacity="0"/>
      <stop offset="1" stop-color="#03050A" stop-opacity="0.55"/>
    </radialGradient>
    <radialGradient id="nSunHalo" cx="0.5" cy="0.5" r="0.5">
      <stop offset="0" stop-color="#FF2A6D" stop-opacity="0.32"/><stop offset="1" stop-color="#FF2A6D" stop-opacity="0"/>
    </radialGradient>
    <filter id="glowC" x="-90%" y="-90%" width="280%" height="280%">
      <feGaussianBlur stdDeviation="2.6" result="b"/>
      <feMerge><feMergeNode in="b"/><feMergeNode in="SourceGraphic"/></feMerge>
    </filter>
    <filter id="glowM" x="-90%" y="-90%" width="280%" height="280%">
      <feGaussianBlur stdDeviation="3.2" result="b"/>
      <feMerge><feMergeNode in="b"/><feMergeNode in="SourceGraphic"/></feMerge>
    </filter>
    <filter id="glowG" x="-90%" y="-90%" width="280%" height="280%">
      <feGaussianBlur stdDeviation="2.0" result="b"/>
      <feMerge><feMergeNode in="b"/><feMergeNode in="SourceGraphic"/></feMerge>
    </filter>
    <filter id="titleGlow" x="-60%" y="-120%" width="220%" height="340%">
      <feGaussianBlur stdDeviation="5.5" result="b"/>
      <feMerge><feMergeNode in="b"/><feMergeNode in="b"/><feMergeNode in="SourceGraphic"/></feMerge>
    </filter>
    <filter id="soft6" x="-60%" y="-60%" width="220%" height="220%">
      <feGaussianBlur stdDeviation="5"/>
    </filter>
  </defs>
  <rect x="2" y="2" width="396" height="344" rx="16" fill="url(#nCard)"/>
  <rect x="2" y="2" width="396" height="344" rx="16" fill="url(#nDots)"/>
  <line x1="20" y1="50" x2="380" y2="50" stroke="#1C2A4A" stroke-width="1"/>
  <line x1="20" y1="304" x2="380" y2="304" stroke="#1C2A4A" stroke-width="1"/>
  <line x1="34" y1="58" x2="34" y2="296" stroke="#05D9E8" stroke-width="1.4" stroke-dasharray="2 12" opacity="0.12"><animate attributeName="stroke-dashoffset" values="0;-56" dur="7s" repeatCount="indefinite"/></line><line x1="368" y1="58" x2="368" y2="296" stroke="#FF2A6D" stroke-width="1.4" stroke-dasharray="2 12" opacity="0.12"><animate attributeName="stroke-dashoffset" values="0;-56" dur="5.8s" repeatCount="indefinite"/></line>
  <g><path d="M 200,196 L 286,196 A 86,86 0 0,1 274.4,239 Z" fill="url(#sweepG)"><animateTransform attributeName="transform" type="rotate" values="0 200 196;360 200 196" dur="8s" repeatCount="indefinite"/></path></g><circle cx="200" cy="196" r="88" fill="none" stroke="#05D9E8" stroke-width="1.1" stroke-dasharray="5 7" opacity="0.2"><animateTransform attributeName="transform" type="rotate" values="0 200 196;360 200 196" dur="30s" repeatCount="indefinite"/></circle><circle cx="200" cy="196" r="98" fill="none" stroke="#FF2A6D" stroke-width="1" stroke-dasharray="2 11" opacity="0.13"><animateTransform attributeName="transform" type="rotate" values="360 200 196;0 200 196" dur="44s" repeatCount="indefinite"/></circle>
  <ellipse cx="200" cy="293" rx="54.6" ry="8.8" fill="url(#nShadow)"/><ellipse cx="200" cy="294" rx="38.7" ry="4.4" fill="#020409" opacity="0.5"/><g transform="translate(200,292) scale(0.88) translate(-200,-292)"><g><animateTransform attributeName="transform" type="translate" values="0 0;0 2.6;0 0" dur="3.4s" repeatCount="indefinite" calcMode="spline" keySplines="0.4 0 0.6 1;0.4 0 0.6 1" keyTimes="0;0.5;1" additive="sum"/><animateTransform attributeName="transform" type="translate" values="0 0;0 0;-3.5 0;2.5 0;0 0;0 0" keyTimes="0;0.9;0.91;0.92;0.93;1" dur="6.8s" repeatCount="indefinite" additive="sum"/><ellipse cx="183.3" cy="288.0" rx="12.8" ry="5.3" fill="#F6C177" stroke="#C9924E" stroke-width="0.97"/><circle cx="177.1" cy="289.4" r="2.3" fill="#F6C177" stroke="#C9924E" stroke-width="0.62"/><circle cx="183.3" cy="289.4" r="2.3" fill="#F6C177" stroke="#C9924E" stroke-width="0.62"/><circle cx="189.4" cy="289.4" r="2.3" fill="#F6C177" stroke="#C9924E" stroke-width="0.62"/><ellipse cx="216.7" cy="288.0" rx="12.8" ry="5.3" fill="#F6C177" stroke="#C9924E" stroke-width="0.97"/><circle cx="210.6" cy="289.4" r="2.3" fill="#F6C177" stroke="#C9924E" stroke-width="0.62"/><circle cx="216.7" cy="289.4" r="2.3" fill="#F6C177" stroke="#C9924E" stroke-width="0.62"/><circle cx="222.9" cy="289.4" r="2.3" fill="#F6C177" stroke="#C9924E" stroke-width="0.62"/><g transform="translate(168.3,189.9) rotate(-6.0) "><g transform="scale(1.18)"><path d="M 2,-6 C -12,4 -22,26 -16,48 C -11,60 -1,57 1,40 C 3,25 2,8 2,-6 Z" fill="url(#nWing)" stroke="#05D9E8" stroke-width="1.23" stroke-opacity="0.65"/></g></g><g transform="translate(231.7,189.9) rotate(6.0) scale(-1,1)"><g transform="scale(1.18)"><path d="M 2,-6 C -12,4 -22,26 -16,48 C -11,60 -1,57 1,40 C 3,25 2,8 2,-6 Z" fill="url(#nWing)" stroke="#FF2A6D" stroke-width="1.23" stroke-opacity="0.65"/></g></g><ellipse cx="197.0" cy="209.5" rx="48.4" ry="77.4" fill="none" stroke="#05D9E8" stroke-width="2.29" opacity="0.55" filter="url(#glowC)"/><ellipse cx="203.0" cy="212.5" rx="48.4" ry="77.4" fill="none" stroke="#FF2A6D" stroke-width="2.29" opacity="0.4" filter="url(#glowM)"/><ellipse cx="200.0" cy="211.0" rx="48.4" ry="77.4" fill="url(#nBody)"/><ellipse cx="200.0" cy="162.6" rx="22.9" ry="18.5" fill="#E9F5FA"/><rect x="186.8" y="175.8" width="26.4" height="12.3" rx="6.2" fill="#E9F5FA"/><line x1="200.0" y1="135.6" x2="200.0" y2="130.1" stroke="#6E6A86" stroke-width="1.76" stroke-linecap="round"/><circle cx="200.0" cy="130.1" r="2.8" fill="#FF2A6D" filter="url(#glowM)"><animate attributeName="opacity" values="0.75;1;0.75" dur="1.8s" repeatCount="indefinite"/></circle><circle cx="200.0" cy="130.1" r="2.8" fill="none" stroke="#FF2A6D" stroke-width="1.3" opacity="0.5"><animate attributeName="r" values="2.8;7.9" dur="2.4s" repeatCount="indefinite"/><animate attributeName="opacity" values="0.55;0" dur="2.4s" repeatCount="indefinite"/></circle><g><g transform="translate(192.5,161.8)"><animateTransform attributeName="transform" type="scale" values="1 1;1 1;1 0.12;1 1;1 1" keyTimes="0;0.94;0.955;0.97;1" dur="4.7s" repeatCount="indefinite"/><ellipse cx="-6.2" cy="-3.1" rx="9.7" ry="10.6" fill="#05D9E8" opacity="0.3"/><rect x="-6.2" y="-3.5" width="12.3" height="7.0" rx="3.5" fill="#05D9E8" filter="url(#glowC)"/><rect x="-2.2" y="-1.2" width="4.4" height="2.5" rx="1.2" fill="#EAFFFE" opacity="0.95"/></g><g transform="translate(207.5,161.8)"><animateTransform attributeName="transform" type="scale" values="1 1;1 1;1 0.12;1 1;1 1" keyTimes="0;0.94;0.955;0.97;1" dur="5.3s" repeatCount="indefinite"/><ellipse cx="-6.2" cy="-3.1" rx="9.7" ry="10.6" fill="#05D9E8" opacity="0.3"/><rect x="-6.2" y="-3.5" width="12.3" height="7.0" rx="3.5" fill="#05D9E8" filter="url(#glowC)"/><rect x="-2.2" y="-1.2" width="4.4" height="2.5" rx="1.2" fill="#EAFFFE" opacity="0.95"/></g></g><g transform="translate(200.0,189.1) scale(1.15) translate(-200.0,-189.1)"><path d="M 190,179.12 C 196,173.12 204,173.12 210,179.12 C 211.5,187.12 205,196.12 200,197.12 C 195,196.12 188.5,187.12 190,179.12 Z" fill="#F6C177" stroke="#C9924E" stroke-width="0.88" filter="url(#glowG)"/><path d="M 195.5,182.12 Q 200,178.62 204.5,182.12" stroke="#C9924E" stroke-width="0.88" fill="none" opacity="0.6"/></g><path d="M 178.9,179.4 C 171.0,208.4 177.1,256.8 191.2,274.4 C 196.5,278.8 203.5,278.8 208.8,274.4 C 222.9,256.8 229.0,208.4 221.1,179.4 C 210.6,172.3 189.4,172.3 178.9,179.4 Z" fill="#E9F5FA"/><rect x="178.0" y="200.5" width="44.0" height="56.3" rx="7.0" fill="#060A14" fill-opacity="0.97" stroke="#05D9E8" stroke-width="1.14" opacity="0.98" filter="url(#glowC)"/><rect x="178.0" y="200.5" width="44.0" height="56.3" rx="7.0" fill="url(#nScreen)"/><rect x="184.2" y="209.3" width="24.6" height="2.5" rx="1.2" fill="#0E7A8A" opacity="0.85"/><rect x="184.2" y="217.2" width="17.6" height="2.5" rx="1.2" fill="#0E7A8A" opacity="0.75"/><rect x="184.2" y="225.1" width="28.2" height="2.5" rx="1.2" fill="#0E7A8A" opacity="0.65"/><rect x="184.2" y="233.0" width="13.2" height="2.5" rx="1.2" fill="#0E7A8A" opacity="0.55"/><rect x="184.2" y="241.0" width="21.1" height="2.5" rx="1.2" fill="#0E7A8A" opacity="0.45"/><rect x="184.2" y="248.9" width="4.4" height="6.6" fill="#05D9E8"><animate attributeName="opacity" values="1;1;0;0" keyTimes="0;0.5;0.5;1" dur="1.1s" repeatCount="indefinite" calcMode="discrete"/></rect></g></g>
  <text x="24" y="37" font-family="ui-monospace, 'Cascadia Code', 'JetBrains Mono', Menlo, Consolas, monospace" font-size="13" font-weight="700" letter-spacing="2.5" fill="#9CCFD8">UNIT-04 · PENGUIN.CORE</text><circle cx="364" cy="31" r="3.5" fill="#FF2A6D" filter="url(#glowM)"><animate attributeName="opacity" values="1;0.25;1" dur="1.4s" repeatCount="indefinite"/></circle><text x="350" y="35" text-anchor="end" font-family="ui-monospace, 'Cascadia Code', 'JetBrains Mono', Menlo, Consolas, monospace" font-size="9" letter-spacing="2" fill="#6E6A86">LIVE</text><text x="24" y="330" font-family="ui-monospace, 'Cascadia Code', 'JetBrains Mono', Menlo, Consolas, monospace" font-size="10.5" letter-spacing="2" fill="#F6C177">STATUS: COMPILING VIBES</text><rect x="240" y="321.5" width="7" height="9" fill="#F6C177"><animate attributeName="opacity" values="1;0" dur="1.1s" repeatCount="indefinite" calcMode="discrete"/></rect><text x="376" y="330" text-anchor="end" font-family="ui-monospace, 'Cascadia Code', 'JetBrains Mono', Menlo, Consolas, monospace" font-size="9" letter-spacing="2" fill="#6E6A86">SMIL · 24FPS</text>
  <g opacity="1"><rect x="0" y="2" width="400" height="1.6" fill="#000000" opacity="0.05"/><rect x="0" y="7" width="400" height="1.6" fill="#000000" opacity="0.05"/><rect x="0" y="12" width="400" height="1.6" fill="#000000" opacity="0.05"/><rect x="0" y="17" width="400" height="1.6" fill="#000000" opacity="0.05"/><rect x="0" y="22" width="400" height="1.6" fill="#000000" opacity="0.05"/><rect x="0" y="27" width="400" height="1.6" fill="#000000" opacity="0.05"/><rect x="0" y="32" width="400" height="1.6" fill="#000000" opacity="0.05"/><rect x="0" y="37" width="400" height="1.6" fill="#000000" opacity="0.05"/><rect x="0" y="42" width="400" height="1.6" fill="#000000" opacity="0.05"/><rect x="0" y="47" width="400" height="1.6" fill="#000000" opacity="0.05"/><rect x="0" y="52" width="400" height="1.6" fill="#000000" opacity="0.05"/><rect x="0" y="57" width="400" height="1.6" fill="#000000" opacity="0.05"/><rect x="0" y="62" width="400" height="1.6" fill="#000000" opacity="0.05"/><rect x="0" y="67" width="400" height="1.6" fill="#000000" opacity="0.05"/><rect x="0" y="72" width="400" height="1.6" fill="#000000" opacity="0.05"/><rect x="0" y="77" width="400" height="1.6" fill="#000000" opacity="0.05"/><rect x="0" y="82" width="400" height="1.6" fill="#000000" opacity="0.05"/><rect x="0" y="87" width="400" height="1.6" fill="#000000" opacity="0.05"/><rect x="0" y="92" width="400" height="1.6" fill="#000000" opacity="0.05"/><rect x="0" y="97" width="400" height="1.6" fill="#000000" opacity="0.05"/><rect x="0" y="102" width="400" height="1.6" fill="#000000" opacity="0.05"/><rect x="0" y="107" width="400" height="1.6" fill="#000000" opacity="0.05"/><rect x="0" y="112" width="400" height="1.6" fill="#000000" opacity="0.05"/><rect x="0" y="117" width="400" height="1.6" fill="#000000" opacity="0.05"/><rect x="0" y="122" width="400" height="1.6" fill="#000000" opacity="0.05"/><rect x="0" y="127" width="400" height="1.6" fill="#000000" opacity="0.05"/><rect x="0" y="132" width="400" height="1.6" fill="#000000" opacity="0.05"/><rect x="0" y="137" width="400" height="1.6" fill="#000000" opacity="0.05"/><rect x="0" y="142" width="400" height="1.6" fill="#000000" opacity="0.05"/><rect x="0" y="147" width="400" height="1.6" fill="#000000" opacity="0.05"/><rect x="0" y="152" width="400" height="1.6" fill="#000000" opacity="0.05"/><rect x="0" y="157" width="400" height="1.6" fill="#000000" opacity="0.05"/><rect x="0" y="162" width="400" height="1.6" fill="#000000" opacity="0.05"/><rect x="0" y="167" width="400" height="1.6" fill="#000000" opacity="0.05"/><rect x="0" y="172" width="400" height="1.6" fill="#000000" opacity="0.05"/><rect x="0" y="177" width="400" height="1.6" fill="#000000" opacity="0.05"/><rect x="0" y="182" width="400" height="1.6" fill="#000000" opacity="0.05"/><rect x="0" y="187" width="400" height="1.6" fill="#000000" opacity="0.05"/><rect x="0" y="192" width="400" height="1.6" fill="#000000" opacity="0.05"/><rect x="0" y="197" width="400" height="1.6" fill="#000000" opacity="0.05"/><rect x="0" y="202" width="400" height="1.6" fill="#000000" opacity="0.05"/><rect x="0" y="207" width="400" height="1.6" fill="#000000" opacity="0.05"/><rect x="0" y="212" width="400" height="1.6" fill="#000000" opacity="0.05"/><rect x="0" y="217" width="400" height="1.6" fill="#000000" opacity="0.05"/><rect x="0" y="222" width="400" height="1.6" fill="#000000" opacity="0.05"/><rect x="0" y="227" width="400" height="1.6" fill="#000000" opacity="0.05"/><rect x="0" y="232" width="400" height="1.6" fill="#000000" opacity="0.05"/><rect x="0" y="237" width="400" height="1.6" fill="#000000" opacity="0.05"/><rect x="0" y="242" width="400" height="1.6" fill="#000000" opacity="0.05"/><rect x="0" y="247" width="400" height="1.6" fill="#000000" opacity="0.05"/><rect x="0" y="252" width="400" height="1.6" fill="#000000" opacity="0.05"/><rect x="0" y="257" width="400" height="1.6" fill="#000000" opacity="0.05"/><rect x="0" y="262" width="400" height="1.6" fill="#000000" opacity="0.05"/><rect x="0" y="267" width="400" height="1.6" fill="#000000" opacity="0.05"/><rect x="0" y="272" width="400" height="1.6" fill="#000000" opacity="0.05"/><rect x="0" y="277" width="400" height="1.6" fill="#000000" opacity="0.05"/><rect x="0" y="282" width="400" height="1.6" fill="#000000" opacity="0.05"/><rect x="0" y="287" width="400" height="1.6" fill="#000000" opacity="0.05"/><rect x="0" y="292" width="400" height="1.6" fill="#000000" opacity="0.05"/><rect x="0" y="297" width="400" height="1.6" fill="#000000" opacity="0.05"/><rect x="0" y="302" width="400" height="1.6" fill="#000000" opacity="0.05"/><rect x="0" y="307" width="400" height="1.6" fill="#000000" opacity="0.05"/><rect x="0" y="312" width="400" height="1.6" fill="#000000" opacity="0.05"/><rect x="0" y="317" width="400" height="1.6" fill="#000000" opacity="0.05"/><rect x="0" y="322" width="400" height="1.6" fill="#000000" opacity="0.05"/><rect x="0" y="327" width="400" height="1.6" fill="#000000" opacity="0.05"/><rect x="0" y="332" width="400" height="1.6" fill="#000000" opacity="0.05"/><rect x="0" y="337" width="400" height="1.6" fill="#000000" opacity="0.05"/><rect x="0" y="342" width="400" height="1.6" fill="#000000" opacity="0.05"/><rect x="0" y="347" width="400" height="1.6" fill="#000000" opacity="0.05"/></g>
  <rect x="2" y="2" width="396" height="344" rx="16" fill="none" stroke="#05D9E8" stroke-width="1.4" opacity="0.24"/>
  <path d="M 24,8 H 8 V 24" fill="none" stroke="#05D9E8" stroke-width="2.4" opacity="0.9" stroke-linecap="square"/><path d="M 376,8 H 392 V 24" fill="none" stroke="#05D9E8" stroke-width="2.4" opacity="0.9" stroke-linecap="square"/><path d="M 24,340 H 8 V 324" fill="none" stroke="#05D9E8" stroke-width="2.4" opacity="0.9" stroke-linecap="square"/><path d="M 376,340 H 392 V 324" fill="none" stroke="#05D9E8" stroke-width="2.4" opacity="0.9" stroke-linecap="square"/>
</svg>